<?xml version="1.0" encoding="utf-8"?>
<!-- Generator: Adobe Illustrator 16.0.0, SVG Export Plug-In . SVG Version: 6.00 Build 0)  -->
<!DOCTYPE svg PUBLIC "-//W3C//DTD SVG 1.1//EN" "http://www.w3.org/Graphics/SVG/1.1/DTD/svg11.dtd">
<svg version="1.1" id="Layer_1" xmlns="http://www.w3.org/2000/svg" xmlns:xlink="http://www.w3.org/1999/xlink" x="0px" y="0px"
	 width="24px" height="24px" viewBox="0 0 24 24" enable-background="new 0 0 24 24" xml:space="preserve">
<g>
	<path fill="#EA4C4B" d="M12,1.5C6.201,1.5,1.5,6.2,1.5,12c0,5.799,4.701,10.5,10.5,10.5S22.5,17.799,22.5,12
		C22.5,6.2,17.799,1.5,12,1.5z M12,20c-4.418,0-8-3.582-8-8c0-1.667,0.511-3.214,1.383-4.495l11.113,11.112
		C15.215,19.49,13.668,20,12,20z M18.617,16.496L7.504,5.384C8.785,4.511,10.333,4,12,4c4.418,0,8,3.582,8,8
		C20,13.667,19.49,15.215,18.617,16.496z"/>
</g>
<g opacity="0.3">
	<path fill="#FFFFFF" d="M12,3.5c-4.695,0-8.5,3.805-8.5,8.5h17C20.5,7.305,16.695,3.5,12,3.5z"/>
</g>
</svg>
