<?xml version="1.0" encoding="utf-8"?>
<!-- Generator: Adobe Illustrator 16.0.0, SVG Export Plug-In . SVG Version: 6.00 Build 0)  -->
<!DOCTYPE svg PUBLIC "-//W3C//DTD SVG 1.1//EN" "http://www.w3.org/Graphics/SVG/1.1/DTD/svg11.dtd">
<svg version="1.1" id="Layer_1" xmlns="http://www.w3.org/2000/svg" xmlns:xlink="http://www.w3.org/1999/xlink" x="0px" y="0px"
	 width="24px" height="24px" viewBox="244 244 24 24" enable-background="new 244 244 24 24" xml:space="preserve">
<g>
	<path fill="#D6B24E" d="M265.549,250.053v3.814h-19.098v-5.827c0-0.556,0.451-1.006,1.006-1.006h5.96
		c0.556,0,1.006,0.45,1.006,1.006l0,0c0,0.556,0.451,1.006,1.006,1.006h9.112C265.098,249.046,265.549,249.497,265.549,250.053z"/>
	<path fill="#E6E7E8" d="M247.716,250.175h16.568v2.956h-16.568V250.175z"/>
	<path fill="#FFD25A" d="M266.104,251.968h-20.209c-0.23,0-0.412,0.196-0.395,0.425l0.917,12.133
		c0.019,0.248,0.225,0.439,0.473,0.439h18.217c0.248,0,0.455-0.191,0.474-0.439l0.917-12.133
		C266.516,252.164,266.335,251.968,266.104,251.968z"/>
</g>
</svg>
